<?xml version="1.0" encoding="utf-8"?>
<!-- Generator: Adobe Illustrator 27.5.0, SVG Export Plug-In . SVG Version: 6.00 Build 0)  -->
<svg version="1.1"
	 id="svg39" xmlns:sodipodi="http://sodipodi.sourceforge.net/DTD/sodipodi-0.dtd" xmlns:inkscape="http://www.inkscape.org/namespaces/inkscape" xmlns:cc="http://creativecommons.org/ns#" xmlns:dc="http://purl.org/dc/elements/1.1/" xmlns:svg="http://www.w3.org/2000/svg" xmlns:rdf="http://www.w3.org/1999/02/22-rdf-syntax-ns#" inkscape:export-xdpi="480.37796" inkscape:version="0.92.4 (unknown)"
	 xmlns="http://www.w3.org/2000/svg" xmlns:xlink="http://www.w3.org/1999/xlink" x="0px" y="0px" viewBox="0 0 300 218.7"
	 style="enable-background:new 0 0 300 218.7;" xml:space="preserve">
<style type="text/css">
	.st0{clip-path:url(#SVGID_00000097464389422634575240000008621069542686702228_);}
	.st1{fill:#FFFFFF;}
	.st2{clip-path:url(#SVGID_00000068666596881997686070000012921897424860377524_);}
	.st3{fill:#95C748;}
	.st4{fill:#35BFC0;}
	.st5{clip-path:url(#SVGID_00000103981273820445387100000015349617959742252708_);}
	.st6{clip-path:url(#SVGID_00000134237188413689880250000004781125998175319985_);}
	.st7{opacity:0.5;clip-path:url(#SVGID_00000018220552327245781400000001003556691664194720_);}
	.st8{fill:#3253A0;}
	.st9{clip-path:url(#SVGID_00000054262673285487137890000003905525448614734526_);}
	.st10{fill:#F38334;}
	.st11{fill:#3152A0;}
</style>
<g id="g4602" transform="translate(80.336349,43.663409)">
	<g>
		<defs>
			<rect id="SVGID_1_" x="-206.8" y="88.6" width="440.7" height="121.2"/>
		</defs>
		<clipPath id="SVGID_00000055676246839878248070000016661838513168600986_">
			<use xlink:href="#SVGID_1_"  style="overflow:visible;"/>
		</clipPath>
		
			<g id="g15" transform="matrix(1.2240905,0,0,1.2240905,-197.63875,116.58551)" style="clip-path:url(#SVGID_00000055676246839878248070000016661838513168600986_);">
			<path id="path13" inkscape:connector-curvature="0" class="st1" d="M340.9,31.3c0,9.1-7.3,16.4-16.4,16.4s-16.4-7.3-16.4-16.4
				s7.3-16.4,16.4-16.4C333.6,14.9,340.9,22.2,340.9,31.3C340.9,31.3,340.9,31.3,340.9,31.3 M324.5,23.1c-4.5,0-8.2,3.7-8.2,8.2
				s3.7,8.2,8.2,8.2s8.2-3.7,8.2-8.2S329,23.1,324.5,23.1L324.5,23.1 M254,31.3c0,9.1-7.3,16.4-16.4,16.4c-9.1,0-16.4-7.3-16.4-16.4
				s7.3-16.4,16.4-16.4C246.7,14.9,254,22.3,254,31.3C254,31.3,254,31.3,254,31.3 M237.6,23.1c-4.5,0-8.2,3.7-8.2,8.2
				s3.7,8.2,8.2,8.2s8.2-3.7,8.2-8.2S242.2,23.1,237.6,23.1L237.6,23.1 M175.7,14.9c-1.6-0.1-3.1,0.9-3.8,2.4
				c-7.7-4.7-17.8-2.3-22.6,5.4s-2.3,17.8,5.4,22.6c5.3,3.2,11.9,3.2,17.2,0c0.6,1.5,2.1,2.5,3.8,2.4c2.2,0.1,4.1-1.7,4.1-3.9
				c0-0.1,0-0.3,0-0.4V19.2c0.2-2.2-1.5-4.1-3.7-4.3C176,14.9,175.9,14.9,175.7,14.9 M163.5,39.5c-4.5,0-8.2-3.7-8.2-8.2
				s3.7-8.2,8.2-8.2c4.2,0,7.8,3.2,8.2,7.5V32C171.3,36.3,167.7,39.5,163.5,39.5 M218.4,33.6c-0.1-2.3-2-4-4.3-3.9
				c-2.1,0.1-3.8,1.8-3.9,3.9c-0.3,3.3-3.3,5.7-6.6,5.4c-2.8-0.3-5.1-2.5-5.4-5.4V23.1h9.6c2.3,0,4.1-1.8,4.1-4.1
				c0-2.3-1.8-4.1-4.1-4.1h-9.7v-2.8c-0.1-2.3-2-4-4.3-3.9c-2.1,0.1-3.8,1.8-3.9,3.9v2.8h-3.3c-2.3,0-4.1,1.8-4.1,4.1
				s1.8,4.1,4.1,4.1l0,0h3.3v10.5c0.1,7.8,6.4,14,14.2,14.1C212.1,47.7,218.4,41.4,218.4,33.6 M305.3,43.6V28.9
				c-0.1-7.8-6.5-14-14.3-13.9c-3.7,0-7.3,1.6-9.9,4.2c-5.5-5.6-14.4-5.6-20-0.2c-2.7,2.6-4.2,6.2-4.2,9.9v14.7c0.1,2.3,2,4,4.3,3.9
				c2.1-0.1,3.8-1.8,3.9-3.9V29c0.3-3.3,3.2-5.7,6.5-5.4c2.9,0.3,5.2,2.5,5.4,5.4v14.4c0,2.3,1.8,4.2,4.1,4.2c2.3-0.1,4-2,4-4.2V29
				c0.3-3.3,3.2-5.7,6.5-5.4c2.9,0.3,5.2,2.5,5.4,5.4v14.6c0,2.3,1.8,4.1,4.1,4.1C303.4,47.7,305.2,45.9,305.3,43.6 M144.2,43.6
				V28.9c-0.1-7.8-6.5-14-14.3-13.9c-3.7,0.1-7.3,1.6-9.9,4.2c-5.5-5.6-14.4-5.7-19.9-0.2c-2.7,2.6-4.2,6.2-4.2,9.9v14.7
				c0,2.3,1.8,4.1,4.1,4.1c2.3,0,4.1-1.8,4.1-4.1V29c0-3.3,2.7-6,6-6c3.3,0,6,2.7,6,6v14.4c0,2.3,1.8,4.2,4.1,4.3c2.3-0.1,4-2,4-4.3
				V29c0.3-3.3,3.3-5.7,6.6-5.4c2.8,0.3,5.1,2.5,5.4,5.4v14.6c0,2.3,1.8,4.1,4.1,4.1C142.4,47.7,144.2,45.9,144.2,43.6"/>
		</g>
	</g>
	<g id="g884" transform="matrix(2.4773911,0,0,2.4773911,-80.336343,-43.663409)">
		<g>
			<defs>
				<rect id="SVGID_00000136371177076209867800000005332283418792727183_" x="-408.6" y="-149.1" width="1317" height="362.2"/>
			</defs>
			<clipPath id="SVGID_00000090991373077275716300000013380027216415491476_">
				<use xlink:href="#SVGID_00000136371177076209867800000005332283418792727183_"  style="overflow:visible;"/>
			</clipPath>
			
				<g id="g21" transform="matrix(1.4767077,0,0,1.4767077,-4.7697659,-7.3835948)" style="clip-path:url(#SVGID_00000090991373077275716300000013380027216415491476_);">
				<path id="path17" inkscape:connector-curvature="0" class="st3" d="M83.4,33.3L83.2,33c0,0-0.1-0.1-0.1-0.1L68.5,10.6l-18.8,14
					l13.8,21.3l0.2,0.3l0.1,0.1c3.7,5.4,11.1,6.7,16.4,3C85.3,45.7,86.8,38.6,83.4,33.3"/>
				<path id="path19" inkscape:connector-curvature="0" class="st4" d="M26.8,39.5c0-6.5-5.3-11.8-11.8-11.8S3.2,33,3.2,39.5
					S8.5,51.3,15,51.3h0C21.5,51.3,26.8,46,26.8,39.5"/>
			</g>
		</g>
		<g>
			<defs>
				<path id="SVGID_00000094575980992249045030000015730721158554228632_" d="M64.1,17.4c0,4.3,1.6,8.4,4.4,11.6L89,60.4l0.3,0.4
					l0.1,0.2c5.3,8,16.1,10.2,24.1,4.9s10.2-16.1,4.9-24.1l0,0l-0.3-0.5c-0.1-0.1-0.1-0.1-0.1-0.2L96.4,8.3
					c-5-8.2-15.7-10.8-23.9-5.7C67.2,5.7,64.1,11.4,64.1,17.4"/>
			</defs>
			<clipPath id="SVGID_00000102520189652382344670000016790029943458278049_">
				<use xlink:href="#SVGID_00000094575980992249045030000015730721158554228632_"  style="overflow:visible;"/>
			</clipPath>
			
				<g id="g29" transform="matrix(1.4767077,0,0,1.4767077,-4.7697659,-7.3835948)" style="clip-path:url(#SVGID_00000102520189652382344670000016790029943458278049_);">
				<g>
					<defs>
						<polygon id="SVGID_00000169536807104781288090000015029597088870637705_" points="1,1 2,1 1,2 						"/>
					</defs>
					<defs>
						<polygon id="SVGID_00000036954017161974575800000008202623287057312688_" points="-1,-1 -2,-1 -1,-2 						"/>
					</defs>
					<clipPath id="SVGID_00000102525961929604628690000015457366636118745729_">
						<use xlink:href="#SVGID_00000169536807104781288090000015029597088870637705_"  style="overflow:visible;"/>
					</clipPath>
					
						<clipPath id="SVGID_00000178916806637019069400000002557134770733810361_" style="clip-path:url(#SVGID_00000102525961929604628690000015457366636118745729_);">
						<use xlink:href="#SVGID_00000036954017161974575800000008202623287057312688_"  style="overflow:visible;"/>
					</clipPath>
					<g id="g25" style="opacity:0.5;clip-path:url(#SVGID_00000178916806637019069400000002557134770733810361_);">
						
							<image style="overflow:visible;enable-background:new    ;" width="324" height="244" id="image23" xlink:href="FCB36E69.png"  transform="matrix(0.239 0 0 0.239 3.934787e-02 0)">
						</image>
					</g>
				</g>
				<path id="path27" inkscape:connector-curvature="0" class="st8" d="M70.3,16.8C70.3,10.3,65,5,58.5,5c-6.5,0-11.8,5.3-11.8,11.8
					c0,2.3,0.7,4.6,2,6.6l-9-12.7C36.2,5.1,29,3.3,23.4,6.7c-1.6,1-2.9,2.3-3.9,3.9L5.3,32.9c3.6-5.4,11-6.8,16.4-3.2
					c1.4,1,2.6,2.2,3.5,3.7l9.3,13.1c3.8,5.2,11.2,6.4,16.4,2.6c1-0.7,1.8-1.6,2.6-2.6l0.1-0.2c0.2-0.3,0.5-0.7,0.7-1.1l14-21.8
					C69.6,21.5,70.3,19.2,70.3,16.8 M50.4,25.4l0.2,0.2L50.4,25.4 M51.4,26.3l0.2,0.2L51.4,26.3 M54.1,27.7l0.3,0.1L54.1,27.7
					 M55.3,28.2l0.4,0.1L55.3,28.2 M56.7,28.4l0.4,0.1L56.7,28.4 M66.3,25.7l0.3-0.3L66.3,25.7 M59.9,28.5l0.4-0.1L59.9,28.5
					 M61.2,28.3l0.5-0.1L61.2,28.3 M62.6,27.9c0.1,0,0.3-0.1,0.4-0.1C62.8,27.8,62.7,27.8,62.6,27.9 M65.2,26.5l0.2-0.2L65.2,26.5
					 M67.2,24.7l0.2-0.3L67.2,24.7 M5,33.3c0.1-0.2,0.2-0.3,0.3-0.4L5,33.3L5,33.3z"/>
			</g>
		</g>
		<g>
			<defs>
				<rect id="SVGID_00000036944138818510645090000005100294213559227582_" x="-408.6" y="-149.1" width="1317" height="362.2"/>
			</defs>
			<clipPath id="SVGID_00000077309878583800241740000001247310123248110998_">
				<use xlink:href="#SVGID_00000036944138818510645090000005100294213559227582_"  style="overflow:visible;"/>
			</clipPath>
			
				<g id="g35" transform="matrix(1.4767077,0,0,1.4767077,-4.7697659,-7.3835948)" style="clip-path:url(#SVGID_00000077309878583800241740000001247310123248110998_);">
				<path id="path31" inkscape:connector-curvature="0" class="st10" d="M70.2,16.8C70.2,10.3,65,5,58.4,5s-11.8,5.3-11.8,11.8
					c0,6.5,5.3,11.8,11.8,11.8c0,0,0,0,0,0C65,28.6,70.3,23.3,70.2,16.8"/>
				<path id="path33" inkscape:connector-curvature="0" class="st11" d="M58.5,28.6c-4,0-7.7-2-9.9-5.3l-9-12.7
					C36.2,5.1,29,3.3,23.4,6.7c-1.6,1-2.9,2.3-3.9,3.9L5.3,32.9c3.6-5.4,11-6.8,16.4-3.2c1.4,1,2.6,2.2,3.5,3.7l9.4,13.1
					c3.8,5.2,11.2,6.4,16.4,2.6c1-0.7,1.8-1.6,2.6-2.6l0.1-0.2l0.7-1l14-21.8C66,26.7,62.4,28.6,58.5,28.6 M5,33.3l0.3-0.4L5,33.3z"
					/>
			</g>
		</g>
	</g>
</g>
</svg>
