<?xml version="1.0" encoding="utf-8"?>
<svg version="1.1" 
id="FondParcours" 
xmlns="http://www.w3.org/2000/svg" 
xmlnsXlink="http://www.w3.org/1999/xlink" 
viewBox="0 0 1368 392" style="enable-background:new 0 0 1368 392;">
<style type="text/css">
	.st0{fill:none;stroke:#FF69B4;stroke-miterlimit:10;}
	.st1{opacity:0.9;fill:none;stroke:#FF69B4;stroke-miterlimit:10;}
	.st2{opacity:0.8;fill:none;stroke:#FF69B4;stroke-miterlimit:10;}
	.st3{opacity:0.7;fill:none;stroke:#FF69B4;stroke-miterlimit:10;}
	.st4{opacity:0.6;fill:none;stroke:#FF69B4;stroke-miterlimit:10;}
	.st5{opacity:0.5;fill:none;stroke:#FF69B4;stroke-miterlimit:10;}
	.st6{opacity:0.4;fill:none;stroke:#FF69B4;stroke-miterlimit:10;}
	.st7{opacity:0.3;fill:none;stroke:#FF69B4;stroke-miterlimit:10;}
	.st8{opacity:0.2;fill:none;stroke:#FF69B4;stroke-miterlimit:10;}
</style>
<g>
	<polyline class="st0" points="388.7,152.8 345.4,109.5 258.9,196 345.4,282.6 388.7,239.3 	"/>
	<path class="st0" d="M388.7,239.3"/>
	<polyline class="st1" points="396.9,144.6 345.4,93.1 242.6,196 345.4,298.9 396.9,247.5 	"/>
	<path class="st0" d="M388.7,239.3"/>
	<path class="st0" d="M396.9,247.5"/>
	<polyline class="st2" points="406.6,134.9 345.4,73.7 223.1,196 345.4,318.3 406.6,257.2 	"/>
	<polyline class="st3" points="418.1,268.7 345.4,341.4 200.1,196 345.4,50.7 418.1,123.3 	"/>
	<path class="st0" d="M406.6,257.2"/>
	<path class="st0" d="M396.9,247.5"/>
	<path class="st0" d="M388.7,239.3"/>
	<path class="st0" d="M388.7,239.3"/>
	<path class="st0" d="M396.9,247.5"/>
	<path class="st0" d="M406.6,257.2"/>
	<path class="st0" d="M418.1,268.7"/>
	<polyline class="st4" points="431.8,109.6 345.4,23.2 172.6,196 345.4,368.8 431.8,282.4 	"/>
	<polyline class="st5" points="336.5,392.4 140,196 336.4,-0.4 	"/>
	<line class="st0" x1="448.1" y1="93.3" x2="354.4" y2="-0.4"/>
	<line class="st0" x1="448.1" y1="298.7" x2="354.4" y2="392.4"/>
	<path class="st0" d="M431.8,282.4"/>
	<path class="st0" d="M418.1,268.7"/>
	<path class="st0" d="M406.6,257.2"/>
	<path class="st0" d="M396.9,247.5"/>
	<path class="st0" d="M388.7,239.3"/>
	<path class="st0" d="M448.1,93.3"/>
	<polyline class="st6" points="297.7,392.4 101.3,196 297.7,-0.4 	"/>
	<line class="st0" x1="467.5" y1="73.9" x2="393.2" y2="-0.4"/>
	<line class="st0" x1="467.5" y1="318.1" x2="393.2" y2="392.4"/>
	<path class="st0" d="M448.1,298.7"/>
	<path class="st0" d="M431.8,282.4"/>
	<path class="st0" d="M418.1,268.7"/>
	<path class="st0" d="M406.6,257.2"/>
	<path class="st0" d="M396.9,247.5"/>
	<path class="st0" d="M388.7,239.3"/>
	<path class="st0" d="M388.7,239.3"/>
	<path class="st0" d="M396.9,247.5"/>
	<path class="st0" d="M406.6,257.2"/>
	<path class="st0" d="M418.1,268.7"/>
	<path class="st0" d="M431.8,282.4"/>
	<path class="st0" d="M448.1,298.7"/>
	<path class="st0" d="M467.5,318.1"/>
	<line class="st0" x1="490.5" y1="341.1" x2="439.2" y2="392.4"/>
	<line class="st0" x1="490.5" y1="50.9" x2="439.2" y2="-0.4"/>
	<polyline class="st7" points="251.6,392.4 55.2,196 251.6,-0.4 	"/>
	<polyline class="st8" points="196.9,392.4 0.5,196 196.9,-0.4 	"/>
	<line class="st0" x1="517.9" y1="23.5" x2="494" y2="-0.4"/>
	<line class="st0" x1="517.9" y1="368.5" x2="494" y2="392.4"/>
	<path class="st0" d="M490.5,341.1"/>
	<path class="st0" d="M467.5,318.1"/>
	<path class="st0" d="M448.1,298.7"/>
	<path class="st0" d="M431.8,282.4"/>
	<path class="st0" d="M418.1,268.7"/>
	<path class="st0" d="M406.6,257.2"/>
	<path class="st0" d="M396.9,247.5"/>
	<path class="st0" d="M388.7,239.3"/>
	<path class="st0" d="M517.9,23.5"/>
	<path class="st0" d="M517.9,368.5"/>
	<path class="st0" d="M490.5,341.1"/>
	<path class="st0" d="M467.5,318.1"/>
	<path class="st0" d="M448.1,298.7"/>
	<path class="st0" d="M431.8,282.4"/>
	<path class="st0" d="M418.1,268.7"/>
	<path class="st0" d="M406.6,257.2"/>
	<path class="st0" d="M396.9,247.5"/>
	<path class="st0" d="M388.7,239.3"/>
</g>
<g>
	<polyline class="st0" points="541.8,-0.4 517.9,23.5 490.5,50.9 448.1,93.3 431.8,109.6 431.8,109.6 418.1,123.3 406.6,134.9 
		396.9,144.6 388.7,152.8 345.4,196 388.7,239.3 396.9,247.5 406.6,257.2 418.1,268.7 431.8,282.4 448.1,298.7 448.1,298.7 
		467.5,318.1 467.5,318.1 490.5,341.1 517.9,368.5 541.8,392.4 	"/>
</g>
<g>
	<polyline class="st0" points="978.8,239.3 1022,282.6 1108.6,196 1022,109.5 978.8,152.8 	"/>
	<path class="st0" d="M978.8,239.3"/>
	<polyline class="st1" points="970.6,247.5 1022,298.9 1124.9,196 1022,93.1 970.6,144.6 	"/>
	<path class="st0" d="M978.8,239.3"/>
	<path class="st0" d="M970.6,247.5"/>
	<polyline class="st2" points="960.9,257.2 1022,318.3 1144.3,196 1022,73.7 960.9,134.9 	"/>
	<polyline class="st3" points="949.3,123.3 1022,50.7 1167.4,196 1022,341.4 949.3,268.7 	"/>
	<path class="st0" d="M960.9,257.2"/>
	<path class="st0" d="M970.6,247.5"/>
	<path class="st0" d="M978.8,239.3"/>
	<path class="st0" d="M978.8,239.3"/>
	<path class="st0" d="M970.6,247.5"/>
	<path class="st0" d="M960.9,257.2"/>
	<path class="st0" d="M949.3,268.7"/>
	<polyline class="st4" points="935.6,282.4 1022,368.8 1194.8,196 1022,23.2 935.6,109.6 	"/>
	<polyline class="st5" points="1031,-0.4 1227.4,196 1031,392.4 	"/>
	<line class="st0" x1="1013" y1="-0.4" x2="919.3" y2="93.3"/>
	<line class="st0" x1="1013" y1="392.4" x2="919.3" y2="298.7"/>
	<path class="st0" d="M935.6,282.4"/>
	<path class="st0" d="M949.3,268.7"/>
	<path class="st0" d="M960.9,257.2"/>
	<path class="st0" d="M970.6,247.5"/>
	<path class="st0" d="M978.8,239.3"/>
	<path class="st0" d="M919.3,93.3"/>
	<polyline class="st6" points="1069.8,-0.4 1266.2,196 1069.8,392.4 	"/>
	<line class="st0" x1="974.3" y1="-0.4" x2="900" y2="73.9"/>
	<line class="st0" x1="974.3" y1="392.4" x2="900" y2="318.1"/>
	<path class="st0" d="M919.3,298.7"/>
	<path class="st0" d="M935.6,282.4"/>
	<path class="st0" d="M949.3,268.7"/>
	<path class="st0" d="M960.9,257.2"/>
	<path class="st0" d="M970.6,247.5"/>
	<path class="st0" d="M978.8,239.3"/>
	<path class="st0" d="M978.8,239.3"/>
	<path class="st0" d="M970.6,247.5"/>
	<path class="st0" d="M960.9,257.2"/>
	<path class="st0" d="M949.3,268.7"/>
	<path class="st0" d="M935.6,282.4"/>
	<path class="st0" d="M919.3,298.7"/>
	<path class="st0" d="M900,318.1"/>
	<line class="st0" x1="928.2" y1="392.4" x2="876.9" y2="341.1"/>
	<line class="st0" x1="928.2" y1="-0.4" x2="876.9" y2="50.9"/>
	<polyline class="st7" points="1115.8,-0.4 1312.2,196 1115.8,392.4 	"/>
	<polyline class="st8" points="1170.6,-0.4 1367,196 1170.6,392.4 	"/>
	<line class="st0" x1="873.5" y1="-0.4" x2="849.5" y2="23.5"/>
	<line class="st0" x1="873.5" y1="392.4" x2="849.5" y2="368.5"/>
	<path class="st0" d="M876.9,341.1"/>
	<path class="st0" d="M900,318.1"/>
	<path class="st0" d="M919.3,298.7"/>
	<path class="st0" d="M935.6,282.4"/>
	<path class="st0" d="M949.3,268.7"/>
	<path class="st0" d="M960.9,257.2"/>
	<path class="st0" d="M970.6,247.5"/>
	<path class="st0" d="M978.8,239.3"/>
	<path class="st0" d="M849.5,23.5"/>
	<path class="st0" d="M849.5,368.5"/>
	<path class="st0" d="M876.9,341.1"/>
	<path class="st0" d="M900,318.1"/>
	<path class="st0" d="M919.3,298.7"/>
	<path class="st0" d="M935.6,282.4"/>
	<path class="st0" d="M949.3,268.7"/>
	<path class="st0" d="M960.9,257.2"/>
	<path class="st0" d="M970.6,247.5"/>
	<path class="st0" d="M978.8,239.3"/>
</g>
<g>
	<polyline class="st0" points="825.6,392.4 849.6,368.5 876.9,341.1 900,318.1 900,318.1 919.3,298.7 919.3,298.7 935.6,282.4 
		949.4,268.7 960.9,257.2 970.6,247.5 978.8,239.3 1022,196 978.8,152.8 970.6,144.6 960.9,134.9 949.3,123.3 935.6,109.6 
		935.6,109.6 919.3,93.3 876.9,50.9 849.5,23.5 825.6,-0.4 	"/>
</g>
</svg>
